<svg xmlns="http://www.w3.org/2000/svg" viewBox="0 0 512 512" width="512" height="512">
  <defs>
    <radialGradient id="bg" cx="50%" cy="40%" r="60%">
      <stop offset="0%" stop-color="#0d1d24"/>
      <stop offset="100%" stop-color="#080c0f"/>
    </radialGradient>
  </defs>
  <rect width="512" height="512" rx="120" fill="url(#bg)"/>
  <polygon points="256,52 388,128 388,282 256,358 124,282 124,128"
    fill="rgba(0,255,224,0.06)" stroke="#00ffe0" stroke-width="2.5" stroke-linejoin="round"/>
  <polygon points="256,80 368,140 368,258 256,318 144,258 144,140"
    fill="none" stroke="rgba(0,255,224,0.12)" stroke-width="1"/>
  <text x="256" y="200" text-anchor="middle" dominant-baseline="central"
    font-family="Orbitron,monospace" font-size="130" font-weight="900" fill="#00ffe0">D</text>
  <text x="256" y="390" text-anchor="middle" dominant-baseline="central"
    font-family="Orbitron,monospace" font-size="48" font-weight="900"
    fill="#e0edf5" letter-spacing="0.2em">DRIFT</text>
  <text x="256" y="435" text-anchor="middle" dominant-baseline="central"
    font-family="monospace" font-size="16" fill="rgba(0,255,224,0.4)" letter-spacing="0.22em">BSC TESTNET</text>
  <line x1="60" y1="60" x2="100" y2="60" stroke="rgba(0,255,224,0.18)" stroke-width="1"/>
  <line x1="60" y1="60" x2="60"  y2="100" stroke="rgba(0,255,224,0.18)" stroke-width="1"/>
  <line x1="452" y1="60" x2="412" y2="60"  stroke="rgba(0,255,224,0.18)" stroke-width="1"/>
  <line x1="452" y1="60" x2="452" y2="100" stroke="rgba(0,255,224,0.18)" stroke-width="1"/>
  <line x1="60"  y1="452" x2="100" y2="452" stroke="rgba(0,255,224,0.18)" stroke-width="1"/>
  <line x1="60"  y1="452" x2="60"  y2="412" stroke="rgba(0,255,224,0.18)" stroke-width="1"/>
  <line x1="452" y1="452" x2="412" y2="452" stroke="rgba(0,255,224,0.18)" stroke-width="1"/>
  <line x1="452" y1="452" x2="452" y2="412" stroke="rgba(0,255,224,0.18)" stroke-width="1"/>
</svg>
